<svg width="24.000000" height="24.000000" viewBox="0 0 24 24" fill="none" xmlns="http://www.w3.org/2000/svg" xmlns:xlink="http://www.w3.org/1999/xlink">
	<desc>
			Created with Pixso.
	</desc>
	<defs>
		<clipPath id="clip2_5262">
			<rect width="24.000000" height="24.000000" fill="white" fill-opacity="0"/>
		</clipPath>
	</defs>
	<g clip-path="url(#clip2_5262)">
		<path d="M16.6416 16.2445C18.0422 14.3001 19 12.1631 19 10C19 6.134 15.866 3 12 3C8.13403 3 5 6.134 5 10C5 12.1631 5.95776 14.3001 7.3584 16.2445C8.74878 18.1742 10.4583 19.7503 11.677 20.7485C11.8767 20.9122 12.1233 20.9122 12.323 20.7485C13.5417 19.7503 15.2512 18.1742 16.6416 16.2445ZM13.5903 22.2957C16.1746 20.1791 21 15.4917 21 10C21 5.02943 16.9705 1 12 1C7.02954 1 3 5.02943 3 10C3 15.4917 7.82544 20.1791 10.4097 22.2957C11.3464 23.0631 12.6536 23.0631 13.5903 22.2957Z" fill="#777E91" fill-opacity="1.000000" fill-rule="evenodd"/>
		<path d="M12 8C10.8955 8 10 8.89543 10 10C10 11.1046 10.8955 12 12 12C13.1045 12 14 11.1046 14 10C14 8.89543 13.1045 8 12 8ZM8 10C8 7.79086 9.79077 6 12 6C14.2092 6 16 7.79086 16 10C16 12.2091 14.2092 14 12 14C9.79077 14 8 12.2091 8 10Z" fill="#777E91" fill-opacity="1.000000" fill-rule="evenodd"/>
	</g>
</svg>
